<svg xmlns="http://www.w3.org/2000/svg" width="225" height="80" viewBox="0 0 288.002 102.15">
  <defs>
    <clipPath id="clip-path">
      <rect width="288.002" height="102.15" fill="none"/>
    </clipPath>
  </defs>
  <g clip-path="url(#clip-path)">
    <path d="M277.194,26.493l-.1-.051-.1-.047c-6.386-2.945-12.813-1.339-15.279-.511l-.217.073-.312.128a28.362,28.362,0,0,0-7.927,5.118,9.176,9.176,0,0,0-1.319-2.151,9.274,9.274,0,0,0-6.723-3.3l-.086,0-8.215.007a8.916,8.916,0,0,0-4.367,1.209c-2.243-8.179-9.184-20.4-30.7-16.189a62.322,62.322,0,0,0-15.086,5.46l-3.082,1.543c-.293.151-.562.285-.844.429.007-.175.044-.329.044-.509a13.262,13.262,0,0,0-.448-3.431,14.356,14.356,0,0,0-7.122-8.756c-6.693-3.851-14.873-1.387-18.915,3.219l.167-.136A15.2,15.2,0,0,0,152.345,19.3a18.059,18.059,0,0,0,.177,2.485c0,.01,0,.014,0,.025,0-.028-.135-1.328-.135-1.328s.2,1.835.2,1.9l.037.15a21.919,21.919,0,0,0,1.165,3.886,15.561,15.561,0,0,0-2.467-.336l-.1,0H130.684a9.269,9.269,0,0,0-6.321,2.638,18.9,18.9,0,0,0-8.919-2.958l-.1,0H94.8A9.44,9.44,0,0,0,86.33,31.5l-.045.107c-.047-.317-.081-.551-.1-.669-.756-7.051-5.162-8.107-7.721-8.107a7.964,7.964,0,0,0-3.584.825c.015-.244.073-.476.073-.724a11.73,11.73,0,0,0-7.032-10.778l.009-.017-.046-.023C66.527,11.432,55.628,6.288,39.41,8.5a53.508,53.508,0,0,0-8.448,2.277C18.7,15.209,8.843,26.527,5.227,40.338a44.735,44.735,0,0,0-1.6,10.914c0,.011-.012,1.132-.012,1.132,0,15.719,7.3,25.286,13.45,30.554,5.04,4.428,10.793,6.083,15.245,7.028l.122.026,2.359.39.184.024,1.189.141.065.007a33.264,33.264,0,0,0,7.255-.176l.207-.027.268-.049.184-.038c13.7-2.7,21.5-13.514,23.57-16.765.842-1.325,1.475-2.355,1.975-3.2l1.83,11.3.068.353c1.183,6.356,6.1,7.043,8.154,7.043l16.613.044a9.342,9.342,0,0,0,5.891-1.81,9.8,9.8,0,0,0,3.806-6.857l1.405-10.6c4.243-.235,9.442-.978,14.011-3.413-1.012,7.357-1.86,13.514-1.86,13.514a9.415,9.415,0,0,0-.077,1.212,8.177,8.177,0,0,0,1.445,4.785,8.747,8.747,0,0,0,7.433,3.5l3.757-.017c.072,0,.145,0,.221,0h.123l-.087,0A10.257,10.257,0,0,0,138.2,87.49a9.9,9.9,0,0,0,3.728-6.8c0,.011.312-2.349.672-5.07.771.54,1.51,1.09,2.2,1.658l.169.139.269.2c2.037,1.406,4.46,3.291,7.447,5.789,13.078,10.943,30.78,18.389,48.568,20.43,17.823,2.045,34.8-1.445,48.408-9.845a9.022,9.022,0,0,0,1.355.7,9.208,9.208,0,0,0,11.979-5.1c.054-.137.095-.277.143-.416a24.068,24.068,0,0,0,6.563-1.01l.362-.106.262-.107c7.549-3.083,17.043-10.624,19.4-29.033l.018-.174.152-1.207a53.482,53.482,0,0,0,.36-6.061c0-15.755-7.943-22.362-13.062-24.982M172,17.673a5.31,5.31,0,0,1-.98.7l.98-.7" transform="translate(-2.934 -2.934)" fill="#edfc42"/>
    <path d="M208.2,102.15a87.608,87.608,0,0,1-9.955-.575c-17.917-2.056-35.75-9.558-48.926-20.584-2.972-2.487-5.392-4.368-7.4-5.751l-.485-.371c-.377-.312-.786-.632-1.238-.967l-.322,2.429c-.1.724-.159,1.2-.225,1.51l.024,0a10.572,10.572,0,0,1-3.986,7.249,10.9,10.9,0,0,1-6.109,2v0l-4.1.018a9.409,9.409,0,0,1-7.988-3.783,8.87,8.87,0,0,1-1.573-5.18,10.111,10.111,0,0,1,.083-1.3l1.685-12.245a34.971,34.971,0,0,1-12.563,2.876l-.755,5.7-.576,4.341a10.465,10.465,0,0,1-4.073,7.314,10.008,10.008,0,0,1-6.324,1.945h0L76.8,86.739c-2.225,0-7.544-.74-8.82-7.6l-.068-.349-1.539-9.5c-.317.512-.657,1.055-1.026,1.635C63.248,74.237,55.3,85.245,41.338,88l-.7.121a34.385,34.385,0,0,1-7.406.178l-.07-.007-1.392-.166L29.233,87.7c-4.53-.963-10.391-2.649-15.552-7.183C7.443,75.168,0,65.434,0,49.45l.012-1.136A45.447,45.447,0,0,1,1.639,37.223C5.306,23.216,15.331,11.71,27.8,7.205a54.156,54.156,0,0,1,8.6-2.314,59.951,59.951,0,0,1,8.073-.553c11.781,0,19.382,3.532,20.785,4.24l.606.305,0,0a12.486,12.486,0,0,1,6.835,10.8,8.786,8.786,0,0,1,2.835-.461c5.731,0,7.584,4.413,8.183,7.343a10.114,10.114,0,0,1,8.149-4.42l20.668,0a19.7,19.7,0,0,1,8.818,2.787,9.9,9.9,0,0,1,6.4-2.468l20.666,0a13.4,13.4,0,0,1,1.392.138,23.614,23.614,0,0,1-.777-2.872l-.051-.273c0-.042-.025-.247-.053-.507h-.009a18.887,18.887,0,0,1-.184-2.588,15.818,15.818,0,0,1,4.236-11l-.019-.02A16.628,16.628,0,0,1,165.168,0a14.937,14.937,0,0,1,7.545,1.993,15.016,15.016,0,0,1,7.439,9.169,13.883,13.883,0,0,1,.458,2.994l2.913-1.458a62.9,62.9,0,0,1,15.259-5.519,43.872,43.872,0,0,1,8.355-.87c15.307,0,20.888,10.136,22.9,16.744a9.4,9.4,0,0,1,3.944-.907l8.214-.007.105,0a9.97,9.97,0,0,1,7.228,3.544,9.565,9.565,0,0,1,1.01,1.487,29.057,29.057,0,0,1,7.444-4.644l.583-.221a24.2,24.2,0,0,1,7.491-1.223,19.639,19.639,0,0,1,8.289,1.761l.228.111C279.587,25.522,288,32.259,288,48.541a54.438,54.438,0,0,1-.365,6.138l-.171,1.376c-2.4,18.749-12.1,26.438-19.821,29.59l-.327.13-.368.108a24.779,24.779,0,0,1-6.263,1.029,9.864,9.864,0,0,1-12.862,5.474,8.828,8.828,0,0,1-1.1-.537,73.963,73.963,0,0,1-38.535,10.3M139.144,71.491l.916.642c.863.6,1.6,1.157,2.239,1.691l.4.309c2.026,1.4,4.479,3.3,7.483,5.818,12.978,10.859,30.55,18.25,48.21,20.276a86.356,86.356,0,0,0,9.8.566,72.507,72.507,0,0,0,38.173-10.314l.356-.22.357.219a8.265,8.265,0,0,0,1.253.649A8.528,8.528,0,0,0,259.429,86.4c.029-.074.054-.151.08-.229l.208-.611h.483a23.615,23.615,0,0,0,6.365-.98l.566-.193c7.383-3.015,16.669-10.405,18.987-28.491l.171-1.38a53,53,0,0,0,.355-5.976c0-6.678-1.649-18.726-12.692-24.377l-.177-.086a18.29,18.29,0,0,0-7.72-1.636A22.794,22.794,0,0,0,259,23.595l-.486.185a27.669,27.669,0,0,0-7.727,4.991l-.7.639-.381-.866a8.47,8.47,0,0,0-1.22-1.991,8.585,8.585,0,0,0-6.221-3.053l-.084,0-8.2.008a8.256,8.256,0,0,0-4.034,1.121l-.759.429-.231-.841c-2.07-7.548-7.535-16.546-21.82-16.546a42.5,42.5,0,0,0-8.094.844,61.767,61.767,0,0,0-14.925,5.407l-4.94,2.491.044-1.159c0-.1.015-.192.026-.286a1.569,1.569,0,0,0,.017-.2,12.593,12.593,0,0,0-.425-3.255,13.686,13.686,0,0,0-6.8-8.343,13.589,13.589,0,0,0-6.867-1.812A15.267,15.267,0,0,0,154.094,6.11l.023.025a14.478,14.478,0,0,0-4.026,10.235q0,.545.038,1.109h0c.139,1.27.183,1.7.2,1.858l.025.1a21.443,21.443,0,0,0,1.135,3.792l.484,1.185-1.252-.263a14.828,14.828,0,0,0-2.353-.322l-.1,0H127.751a8.59,8.59,0,0,0-5.851,2.449l-.388.372-.451-.292a18.219,18.219,0,0,0-8.575-2.849l-.1,0H91.868a8.746,8.746,0,0,0-7.845,5.328l-.983,2.354-.36-2.407c-.049-.325-.083-.566-.1-.687-.666-6.208-4.2-7.51-7.046-7.51a7.258,7.258,0,0,0-3.283.755l-1.051.518.073-1.17c.008-.121.024-.24.04-.358A2.293,2.293,0,0,0,71.346,20,10.987,10.987,0,0,0,64.718,9.846l-.651-.289.017-.034A48.758,48.758,0,0,0,44.476,5.7a58.754,58.754,0,0,0-7.908.543,53.711,53.711,0,0,0-8.313,2.245c-12.048,4.353-21.746,15.5-25.3,29.092A44.092,44.092,0,0,0,1.37,48.334l-.012,1.124c0,15.461,7.185,24.865,13.213,30.03,4.93,4.331,10.575,5.952,14.944,6.88l.122.026,2.489.4,1.182.14a32.552,32.552,0,0,0,7.155-.168l.606-.1C54.511,84.017,62.175,73.393,64.2,70.2c.765-1.2,1.407-2.243,1.965-3.181l.956-1.606,2.193,13.474c1.051,5.649,5.142,6.493,7.487,6.493l16.614.044c.132,0,.239.007.346.007A8.632,8.632,0,0,0,98.9,83.749a9.137,9.137,0,0,0,3.539-6.4l.023,0c.014-.283.068-.685.144-1.262l1.313-9.9.562-.03c5.611-.311,10.1-1.4,13.729-3.334l1.173-.625-2.041,14.832a8.817,8.817,0,0,0-.071,1.119,7.526,7.526,0,0,0,1.318,4.389,8.084,8.084,0,0,0,6.882,3.216l4-.02a9.648,9.648,0,0,0,5.377-1.719,9.239,9.239,0,0,0,3.47-6.347c.006-.043.316-2.382.673-5.073Zm29.277-55.463-.73-1.144.98-.7.853,1.054a5.969,5.969,0,0,1-1.1.788" fill="#f5ee7a"/>
    <path d="M1071.17,176.078" transform="translate(-869.763 -142.971)" fill="#fff"/>
    <path d="M1071.17,176.078" transform="translate(-869.763 -142.971)" fill="none" stroke="#231f20" stroke-width="0.5"/>
    <path d="M1071.17,176.078" transform="translate(-869.763 -142.971)" fill="none" stroke="#231f20" stroke-linecap="round" stroke-linejoin="round" stroke-width="0.8"/>
    <path d="M488.28,157.471h-20.4a2.644,2.644,0,0,0-2.209,1.566l-.878,2.112c-.361.864.044,1.566.9,1.566h2.269a1.455,1.455,0,0,1,1.227,1.467l-5.675,41.224s-.6,1.788,2.1,1.788,3.874-.013,3.874-.013,2.5.4,2.906-2.744c.159-1.245,2.008-15.144,2.008-15.144.2-.993.8-1.208,1.155-1.246l.254,0,.013,0v0c9.579-.06,21.333-.721,22.892-15.087,1.634-15.047-10.444-15.488-10.444-15.488m.586,16.144c-1.269,11.7-9.8,11.884-12.819,11.687a1.482,1.482,0,0,1-.982-1.366l2.987-22.117a2.74,2.74,0,0,1,2.18-1.534c.148-.025-.039.058.109,0,3.456-.027,9.7,2.562,8.525,13.333" transform="translate(-376.321 -127.862)" fill="#231f20"/>
    <path d="M469.366,206.888a2.008,2.008,0,0,1-.294-.019s-1.187.014-3.859.014a2.361,2.361,0,0,1-2.017-.713,1.419,1.419,0,0,1-.171-1.2l5.671-41.207a1.357,1.357,0,0,0-1.152-1.362l-2.251,0a1.1,1.1,0,0,1-.96-.455,1.315,1.315,0,0,1-.032-1.242l.878-2.112a2.747,2.747,0,0,1,2.3-1.624h20.4a11.864,11.864,0,0,1,7.772,3.827c2.381,2.753,3.31,6.712,2.762,11.766-.7,6.457-3.478,10.7-8.493,12.984-4.294,1.952-9.476,2.154-14.421,2.187l-.005.019-.089-.019-.243,0c-.312.034-.877.231-1.064,1.171-.018.133-1.85,13.907-2.007,15.138a3.308,3.308,0,0,1-1.174,2.346,2.594,2.594,0,0,1-1.546.5m-.281-.206a2.48,2.48,0,0,0,1.716-.445,3.132,3.132,0,0,0,1.1-2.217c.158-1.231,1.99-15.005,2.008-15.144.212-1.064.866-1.288,1.238-1.327l.275,0h0c10.72-.068,21.31-1.282,22.8-15,.543-5-.371-8.908-2.715-11.62a11.665,11.665,0,0,0-7.637-3.764H467.474a2.544,2.544,0,0,0-2.122,1.509l-.878,2.112a1.134,1.134,0,0,0,.015,1.066.92.92,0,0,0,.8.371h2.269a1.544,1.544,0,0,1,1.321,1.563l-5.676,41.235a1.263,1.263,0,0,0,.143,1.048,2.2,2.2,0,0,0,1.863.633c2.671,0,3.862-.012,3.873-.013m7.63-21.658c-.378,0-.74-.013-1.084-.036l-.024,0a1.572,1.572,0,0,1-1.045-1.452l2.989-22.146.005-.012a2.837,2.837,0,0,1,2.266-1.59.174.174,0,0,1,.084,0l.024,0a8.371,8.371,0,0,1,6.138,2.724c2.16,2.388,3,5.993,2.482,10.713-1.088,10.029-7.461,11.806-11.835,11.806m-1.059-.222c4.252.273,11.543-.875,12.707-11.6h0c.507-4.665-.312-8.22-2.435-10.567a8.144,8.144,0,0,0-5.979-2.662c-.053.021-.1.036-.14,0a2.685,2.685,0,0,0-2.076,1.466l-2.985,22.1a1.383,1.383,0,0,0,.908,1.261" transform="translate(-375.912 -127.456)" fill="#231f20"/>
    <path d="M829.223,50.332c.008.044.019.089.026.133.01.064.011.125.022.189l.02.02c1.21,5.953,5.171,10.389,19.639,7.559,8.4-1.642,15.157-4.793,23.669-6.456.762-.149,1.54-.266,2.325-.357,6.1-.343,13.179,1.13,13.608,10.749l.021.583a37.028,37.028,0,0,1-.535,5.649c.018.1-5.649,41.528-5.649,41.528s-.6,1.788,2.1,1.788,3.875-.012,3.875-.012,2.5.4,2.906-2.744c.131-1.023,1.4-10.58,1.852-13.961l-.031-.02s.309-2.353.754-5.738c.239-.585.589-1.313,1.578-1.313h8.867a1.193,1.193,0,0,1,1.132,1.293v0l-2.85,20.7s-.6,1.788,2.1,1.788,3.874-.012,3.874-.012,2.5.4,2.906-2.744c.132-1.023,1.4-10.58,1.851-13.961l-.031-.02s.354-2.7.851-6.477c0-.015-.007-.03-.008-.046l.673-4.988c.988-7.455,2.145-16.112,2.441-17.983.539-3.417-2.206-3.5-2.206-3.5l0,.008h-8.092a2.645,2.645,0,0,0-2.209,1.566l-.879,2.113c-.361.864.046,1.566.906,1.566H907a1.456,1.456,0,0,1,1.227,1.467l-1.977,14.363-.065.263a1.972,1.972,0,0,1-1.767,1.374v0h-8.458v0a1.376,1.376,0,0,1-1.366-1.29c.5-3.74,1.029-7.9,1.449-11.354,1.771-9.546.015-13.474.131-13.224-2.91-11.786-12.019-14.1-23.033-11.947-10.416,2.038-15.228,7.918-25.984,10.022-10.665,2.085-15.47-1.217-16.71-6.6h0a8.893,8.893,0,0,1,2.519-7.387,6.228,6.228,0,0,1,2.371-1.193c.037-.01.068-.014.1-.022.212-.055.412-.1.6-.131a4.445,4.445,0,0,1,2.543.2,1.777,1.777,0,0,1,.58.361s.009.006.011.01c.021.018.036.036.055.054a1.781,1.781,0,0,1,.391.648,1.784,1.784,0,0,1-.94,2.222l-.038.03a4.579,4.579,0,1,0,5.566,7.135l.014,0s.052-.06.137-.171a4.589,4.589,0,0,0,.6-.909c1.185-2.041,2.729-6.989-3.051-10.315-3.879-2.232-8.764-.145-10.286,1.863a8.838,8.838,0,0,0-2.4,7.625Z" transform="translate(-673.232 -32.383)" fill="#231f20"/>
    <path d="M888.217,111.419a2,2,0,0,1-.294-.019s-1.187.014-3.86.014a2.361,2.361,0,0,1-2.017-.713,1.418,1.418,0,0,1-.171-1.2c.052-.392,5.567-40.713,5.643-41.493v0l0-.016a36.659,36.659,0,0,0,.533-5.634l-.021-.579c-.157-3.519-1.235-6.206-3.2-7.986-2.247-2.031-5.714-2.93-10.305-2.672-.8.093-1.579.212-2.312.356a107.082,107.082,0,0,0-11.9,3.245,106.151,106.151,0,0,1-11.766,3.211,41.28,41.28,0,0,1-7.837.866c-8.836,0-11.063-4.35-11.907-8.471h0l-.025-.048c-.006-.037-.01-.073-.013-.108s0-.054-.009-.082-.008-.04-.012-.061-.01-.046-.014-.069l-.02-.11h.015a8.926,8.926,0,0,1,2.436-7.6,8.286,8.286,0,0,1,4.3-2.548,8.076,8.076,0,0,1,6.1.668,7.864,7.864,0,0,1,4,4.688,7.948,7.948,0,0,1-.913,5.755,4.7,4.7,0,0,1-.612.923c-.084.11-.137.172-.137.172l-.042.048-.018-.006a4.627,4.627,0,0,1-3.362,1.432,4.675,4.675,0,0,1-2.277-8.758l.047-.035a1.691,1.691,0,0,0,.888-2.1,1.681,1.681,0,0,0-.371-.614l-.023-.023c-.008-.008-.015-.016-.024-.024l-.023-.021a1.677,1.677,0,0,0-.542-.334,4.337,4.337,0,0,0-2.494-.2c-.194.033-.4.077-.6.129l-.053.011-.051.011a6.154,6.154,0,0,0-2.335,1.175,8.767,8.767,0,0,0-2.488,7.287l0,.007c1.409,6.121,7.15,8.38,16.6,6.533a46.81,46.81,0,0,0,13.188-5.075,45.728,45.728,0,0,1,12.8-4.947c12.771-2.5,20.557,1.546,23.142,12.016h0c.27.779,1.436,4.833-.128,13.264-.395,3.244-.923,7.379-1.447,11.34a1.287,1.287,0,0,0,1.279,1.194l.05,0,8.394,0a1.872,1.872,0,0,0,1.682-1.306l.063-.259,1.976-14.353a1.356,1.356,0,0,0-1.152-1.362l-2.251,0a1.1,1.1,0,0,1-.96-.455,1.315,1.315,0,0,1-.032-1.242l.879-2.112a2.747,2.747,0,0,1,2.3-1.624h7.969v0l.124,0a2.587,2.587,0,0,1,1.777.88,3.33,3.33,0,0,1,.519,2.73c-.237,1.5-1.058,7.548-2.44,17.98l-.672,4.975a.262.262,0,0,1,.007.043c-.455,3.466-.79,6.021-.844,6.434l.031.02-.008.059c-.527,3.963-1.725,12.981-1.851,13.961a3.308,3.308,0,0,1-1.174,2.345,2.612,2.612,0,0,1-1.841.479s-1.187.014-3.859.014a2.361,2.361,0,0,1-2.017-.713,1.418,1.418,0,0,1-.171-1.2L904.9,88.816a1.094,1.094,0,0,0-1.056-1.192l-8.85,0c-.9,0-1.227.612-1.486,1.243-.4,3.065-.694,5.282-.745,5.666l.031.02-.008.059c-.4,3.01-1.717,12.912-1.851,13.961a3.308,3.308,0,0,1-1.174,2.346,2.6,2.6,0,0,1-1.546.5m19.9-.206a2.477,2.477,0,0,0,1.716-.445,3.131,3.131,0,0,0,1.1-2.217c.126-.976,1.313-9.91,1.844-13.9l-.031-.02.008-.059s.353-2.7.851-6.477c-.005,0-.008-.016-.009-.029l.674-5.005c1.382-10.434,2.2-16.485,2.441-17.985a3.157,3.157,0,0,0-.476-2.579,2.424,2.424,0,0,0-1.582-.809l-.052,0h-8.092a2.544,2.544,0,0,0-2.122,1.508L903.5,65.31a1.133,1.133,0,0,0,.015,1.065.92.92,0,0,0,.8.371h2.269a1.545,1.545,0,0,1,1.321,1.563l-1.978,14.374-.066.272a2.063,2.063,0,0,1-1.79,1.441l0,0-.067,0h-8.566l0-.016a1.449,1.449,0,0,1-1.353-1.366V83c.525-3.963,1.053-8.1,1.449-11.353,1.566-8.446.388-12.456.136-13.174a.165.165,0,0,1-.01-.041c-1.364-5.5-4.2-9.239-8.418-11.112-3.711-1.646-8.589-1.895-14.5-.74a45.572,45.572,0,0,0-12.746,4.929A46.967,46.967,0,0,1,846.768,56.6a30.965,30.965,0,0,1-5.9.634c-7.425,0-10.065-3.716-10.9-7.236h-.008l-.012-.082a8.964,8.964,0,0,1,2.547-7.467,6.345,6.345,0,0,1,2.411-1.216c.024-.006.044-.011.065-.014l.043-.009c.2-.054.41-.1.61-.133a4.526,4.526,0,0,1,2.6.211,1.858,1.858,0,0,1,.606.378l.017.015c.011.01.021.02.03.03l.018.018a1.871,1.871,0,0,1,.417.687,1.832,1.832,0,0,1,.109.609,1.855,1.855,0,0,1-1.089,1.726l-.025.02a4.488,4.488,0,0,0,2.17,8.416,4.441,4.441,0,0,0,3.266-1.417l.042-.044.01,0c.023-.028.054-.068.093-.119a4.525,4.525,0,0,0,.593-.895,7.758,7.758,0,0,0,.9-5.617,7.685,7.685,0,0,0-3.91-4.574c-3.951-2.274-8.788.021-10.165,1.838a8.762,8.762,0,0,0-2.378,7.556l.015.107h0l0,.022c.005.034.008.065.011.1s0,.045.007.068l.023.043c.707,3.477,2.231,5.7,4.8,7.008,3.211,1.632,8.029,1.788,14.731.477a105.986,105.986,0,0,0,11.746-3.206,107.2,107.2,0,0,1,11.923-3.25c.737-.144,1.522-.265,2.332-.358,4.65-.261,8.162.654,10.447,2.72,2.007,1.815,3.106,4.546,3.265,8.118l.021.583a36.84,36.84,0,0,1-.536,5.667h0c-.109,1.018-3.567,26.333-5.646,41.527a1.263,1.263,0,0,0,.143,1.048,2.2,2.2,0,0,0,1.863.633c2.672,0,3.862-.013,3.874-.013a2.48,2.48,0,0,0,1.716-.445,3.132,3.132,0,0,0,1.1-2.217c.134-1.042,1.434-10.824,1.843-13.9l-.031-.02.008-.059s.308-2.353.754-5.738l.006-.023A1.79,1.79,0,0,1,895,87.437h8.866a1.289,1.289,0,0,1,1.226,1.387l-2.851,20.72a1.263,1.263,0,0,0,.143,1.048,2.2,2.2,0,0,0,1.863.633c2.671,0,3.862-.013,3.873-.013" transform="translate(-672.826 -31.986)" fill="#231f20"/>
    <path d="M1330.8,154.519c-4.281-1.972-9.012-.625-10.234-.215-6.823,2.94-13.068,9.629-14.839,23.447h.01c-.059.424-.12.848-.17,1.289-1.674,14.664,3.285,21.594,9.7,24.549l0,0a14.66,14.66,0,0,0,4.516.795,17.592,17.592,0,0,0,4.664-.726v.006c6.977-2.849,13.433-9.526,15.24-23.616h-.01c.059-.424.119-.846.169-1.287,1.616-14.168-2.955-21.116-9.052-24.237m.082,24.925c-.29,1.914-.66,3.755-1.094,5.5-2.11,8.847-5.917,15.145-9.4,15.078a2.977,2.977,0,0,1-.591-.022c-4.308-.652-6.328-10.911-4.511-22.915s6.781-21.2,11.088-20.553,6.328,10.912,4.511,22.913" transform="translate(-1059.819 -124.617)" fill="#231f20"/>
    <path d="M1319.388,204.051a14.909,14.909,0,0,1-4.493-.78l0,0-.063-.023a15.863,15.863,0,0,1-7.929-7.929c-1.989-4.272-2.6-9.9-1.825-16.716.044-.384.1-.76.147-1.123l.01-.073,0-.094c.825-6.437,2.689-11.769,5.541-15.845a21.834,21.834,0,0,1,9.354-7.677c1.341-.45,6.026-1.757,10.31.216l0,0a15.9,15.9,0,0,1,7.462,8.022c1.843,4.217,2.395,9.7,1.641,16.31-.047.409-.1.808-.156,1.194l0,.095c-.84,6.555-2.757,11.961-5.7,16.066a21.791,21.791,0,0,1-9.6,7.625l-.1.042,0-.016a17.794,17.794,0,0,1-4.6.7m-4.514-.985.03.008a14.687,14.687,0,0,0,4.484.789,17.632,17.632,0,0,0,4.636-.722l.066-.021a21.609,21.609,0,0,0,9.446-7.531c2.906-4.058,4.807-9.4,5.65-15.875h0l.017-.2c.054-.387.11-.787.156-1.2.75-6.572.2-12.026-1.626-16.213a15.721,15.721,0,0,0-7.373-7.929c-4.221-1.944-8.845-.653-10.162-.211a21.646,21.646,0,0,0-9.267,7.609c-2.819,4.029-4.667,9.3-5.5,15.655h0l0,.107-.024.169c-.051.362-.1.736-.147,1.118-.774,6.785-.166,12.375,1.808,16.615a15.682,15.682,0,0,0,7.8,7.823m4.91-3.368a2.735,2.735,0,0,1-.4-.028c-2.126-.322-3.771-2.906-4.631-7.275a47.837,47.837,0,0,1,.041-15.747c1.822-12.035,6.845-21.292,11.2-20.631,2.126.322,3.771,2.906,4.63,7.275a47.822,47.822,0,0,1-.041,15.745c-.284,1.876-.653,3.728-1.1,5.507-2.165,9.078-5.952,15.15-9.439,15.15h-.057c-.069,0-.135.005-.2.005m5.749-43.528c-4.148,0-8.811,8.968-10.557,20.505a47.653,47.653,0,0,0-.042,15.683c.844,4.286,2.433,6.817,4.474,7.126a2.847,2.847,0,0,0,.572.021h.052c3.353,0,7.153-6.153,9.265-15.007.442-1.774.81-3.621,1.093-5.49a47.642,47.642,0,0,0,.042-15.68c-.843-4.286-2.433-6.817-4.474-7.126a2.841,2.841,0,0,0-.424-.032" transform="translate(-1059.422 -124.194)" fill="#231f20"/>
    <path d="M785.6,210.923l-.056-.1a2.722,2.722,0,0,0-.435-.679c-.819-.935-2.661-2.2-5.563-.347-.194.125-.383.259-.57.4,0-.01.007-.017.009-.029-6.3,4.63-15.892,7.631-15.892,7.631h.006c-21.718,6.075-43.983-.161-61.068-10.162,0-.009.008-.021.013-.03-.79-.432-1.587-.9-2.373-1.4a4.706,4.706,0,0,0,.206-.905c.132-1.023,1.4-10.58,1.851-13.961l-.03-.02s.354-2.7.851-6.477c.2-1.536.43-3.25.665-5.034.988-7.455,2.145-16.112,2.44-17.983.539-3.417-2.206-3.5-2.206-3.5l0,.008h-8.092a2.645,2.645,0,0,0-2.209,1.566l-.879,2.113c-.361.864.045,1.566.905,1.566h2.269a1.456,1.456,0,0,1,1.227,1.467l-4.906,35.631c-.76-.594-1.507-1.191-2.229-1.795-6.038-5.052-10.259-8.368-13.357-10.181,6.948-1.076,13.181-4.369,14.286-14.556,1.633-15.047-10.444-15.488-10.444-15.488h-20.4a2.644,2.644,0,0,0-2.208,1.566l-.878,2.113c-.361.864.044,1.567.9,1.567h2.269a1.453,1.453,0,0,1,1.227,1.466L655.269,206.6s-.6,1.788,2.1,1.788,3.875-.013,3.875-.013,2.5.4,2.906-2.745c.144-1.125,1.669-12.588,1.96-14.781l.424.021a49.271,49.271,0,0,1,11.54,6.985c2.1,1.451,4.656,3.421,7.909,6.144,22.138,18.524,63.924,29.093,93.243,7.2a2.025,2.025,0,0,1,.349-.208,1.008,1.008,0,0,1,1.218.346.927.927,0,0,1,.17.633c0,.008.007.017.01.025a2.424,2.424,0,1,0,4.623-1.066Zm-117.808-24.43a1.479,1.479,0,0,1-.981-1.366L669.8,163.01a2.737,2.737,0,0,1,2.179-1.534c.148-.025-.039.058.108,0,3.456-.028,9.7,2.562,8.526,13.333-1.269,11.7-9.8,11.884-12.819,11.687" transform="translate(-532.015 -128.562)" fill="#231f20"/>
    <path d="M740.064,223.15a81.1,81.1,0,0,1-10.575-.706,90.214,90.214,0,0,1-24.168-6.745,82.335,82.335,0,0,1-19.809-12.033c-3.145-2.631-5.73-4.639-7.9-6.138a49.111,49.111,0,0,0-11.509-6.97l-.32-.016-.2,1.527c-.527,3.965-1.624,12.217-1.745,13.167a3.31,3.31,0,0,1-1.174,2.346,2.612,2.612,0,0,1-1.84.48s-1.187.014-3.86.014a2.361,2.361,0,0,1-2.017-.713,1.418,1.418,0,0,1-.171-1.2l5.67-41.207a1.354,1.354,0,0,0-1.152-1.362l-2.251,0a1.1,1.1,0,0,1-.959-.454,1.316,1.316,0,0,1-.032-1.242l.878-2.112a2.747,2.747,0,0,1,2.3-1.624h20.4a11.865,11.865,0,0,1,7.776,3.827c2.381,2.753,3.311,6.712,2.762,11.765-.926,8.529-5.411,13.174-14.108,14.6,2.8,1.672,6.641,4.615,13.145,10.057.609.51,1.279,1.05,2.1,1.692l4.884-35.469a1.357,1.357,0,0,0-1.152-1.362l-2.251,0a1.1,1.1,0,0,1-.96-.455,1.314,1.314,0,0,1-.032-1.242l.879-2.112a2.747,2.747,0,0,1,2.3-1.624h7.969v0l.124,0a2.586,2.586,0,0,1,1.777.88,3.331,3.331,0,0,1,.519,2.73c-.237,1.5-1.058,7.546-2.44,17.981l-.665,5.034c-.455,3.451-.789,6.005-.843,6.418l.03.02-.008.059c-.448,3.368-1.719,12.934-1.851,13.961a4.836,4.836,0,0,1-.187.853c.8.5,1.581.959,2.306,1.356l.083.045-.017.03a93.545,93.545,0,0,0,28.691,11.054,69.158,69.158,0,0,0,32.153-.925l.066-.021c.1-.03,9.651-3.05,15.864-7.617l.206-.151-.007.028c.127-.09.248-.172.366-.249,1.035-.661,3.659-1.95,5.684.364a2.552,2.552,0,0,1,.421.645l.118.211-.012.011a2.518,2.518,0,1,1-4.831,1.062l-.006-.016-.006-.019,0-.019a.837.837,0,0,0-.152-.569.909.909,0,0,0-1.1-.317,1.928,1.928,0,0,0-.337.2A60.886,60.886,0,0,1,755.01,221.6a71.212,71.212,0,0,1-14.946,1.548m-74.447-32.8.544.033a49.287,49.287,0,0,1,11.562,7c2.171,1.5,4.76,3.509,7.909,6.144a82.142,82.142,0,0,0,19.763,12,90.015,90.015,0,0,0,24.118,6.731,74.719,74.719,0,0,0,25.457-.839,60.7,60.7,0,0,0,23.788-10.7,2.087,2.087,0,0,1,.372-.221,1.1,1.1,0,0,1,1.327.379,1.023,1.023,0,0,1,.189.673l.009.038a2.33,2.33,0,1,0,4.444-1.025l-.029-.063h0l-.047-.087a2.423,2.423,0,0,0-.39-.6c-.8-.917-2.572-2.173-5.446-.335-.178.115-.363.244-.565.394l-.24.178.011-.034c-5.576,4.011-13.63,6.8-15.351,7.366l.03.007-.358.1a69.33,69.33,0,0,1-32.315.949,93.763,93.763,0,0,1-28.826-11.12l-.074-.043.013-.027c-.726-.4-1.5-.856-2.3-1.359l-.063-.039.023-.07a4.622,4.622,0,0,0,.2-.888c.132-1.021,1.389-10.484,1.844-13.9l-.03-.02.008-.058s.354-2.7.851-6.477l.665-5.034c1.383-10.437,2.2-16.488,2.441-17.985a3.157,3.157,0,0,0-.476-2.579,2.425,2.425,0,0,0-1.582-.809l-.052,0h-8.092a2.544,2.544,0,0,0-2.122,1.509l-.879,2.112a1.134,1.134,0,0,0,.015,1.065.921.921,0,0,0,.8.371h2.269a1.544,1.544,0,0,1,1.321,1.563l-4.929,35.8-.129-.1c-.879-.688-1.588-1.259-2.231-1.8-6.672-5.582-10.538-8.53-13.344-10.172l-.228-.134.261-.04c8.768-1.359,13.283-5.958,14.207-14.473.542-5-.371-8.908-2.716-11.62a11.667,11.667,0,0,0-7.639-3.764H659.22a2.544,2.544,0,0,0-2.122,1.509l-.878,2.113a1.134,1.134,0,0,0,.015,1.066.92.92,0,0,0,.8.371h2.269a1.542,1.542,0,0,1,1.321,1.563l-5.675,41.235a1.262,1.262,0,0,0,.143,1.048,2.2,2.2,0,0,0,1.863.633c2.671,0,3.862-.012,3.874-.012a2.482,2.482,0,0,0,1.716-.445,3.133,3.133,0,0,0,1.1-2.218c.122-.951,1.218-9.2,1.745-13.168Zm2.848-4.129c-.379,0-.743-.013-1.088-.036l-.024,0a1.568,1.568,0,0,1-1.045-1.451L669.3,162.58l0-.012a2.833,2.833,0,0,1,2.266-1.59.173.173,0,0,1,.084,0l.024,0a8.374,8.374,0,0,1,6.138,2.724c2.16,2.388,3,5.993,2.482,10.714-1.088,10.028-7.458,11.806-11.832,11.806M667.4,186c4.253.275,11.543-.872,12.707-11.6.507-4.665-.312-8.22-2.435-10.567a8.14,8.14,0,0,0-5.979-2.662c-.052.021-.1.036-.14,0a2.681,2.681,0,0,0-2.075,1.466l-2.985,22.1A1.38,1.38,0,0,0,667.4,186" transform="translate(-531.606 -128.156)" fill="#231f20"/>
    <path d="M962.385,163.243a3.252,3.252,0,0,0,1.738-5.984c-.044-.029-.075-.048-.075-.048s0-.006,0-.008c-.049-.029-.105-.059-.158-.088h0a19.072,19.072,0,0,0-9.35-2.278,11.314,11.314,0,0,0-3.015.322c-8.886,1.207-18.8,6.873-21.032,24.217h.011c-.057.407-.116.815-.165,1.238-2.276,19.923,8.616,25.007,18.145,25.421a1.272,1.272,0,0,0,.2.022l.139-.008c.056,0,.112.007.168.008l0-.015c1.468-.071,6.607-.39,9.531-2.962.532-.492,3.074-3.79,1.362-4.219a6.1,6.1,0,0,0-1.852-.184,2.77,2.77,0,0,0-2.358,1.2,6.408,6.408,0,0,1-2.042,1.9,2.177,2.177,0,0,1-.262.161l-.009,0c-.158.063-.316.124-.475.177a8.115,8.115,0,0,1-3.9.355c-7.152-1.161-11.306-12.21-9.282-24.68s9.461-21.637,16.612-20.478a7.732,7.732,0,0,1,2.166.7h0a1.472,1.472,0,0,1,.667,1.381c0,.169,0,.358,0,.557h.015c0,.015,0,.028,0,.043a3.239,3.239,0,0,0,3.227,3.251" transform="translate(-755.16 -125.722)" fill="#231f20"/>
    <path d="M948.585,205.743l-.117-.005-.053,0c-.045,0-.094.007-.13.008a1.365,1.365,0,0,1-.225-.023c-4.232-.183-10.127-1.379-14.1-6.032-3.715-4.35-5.1-10.908-4.12-19.491.042-.37.093-.733.142-1.083l.009-.062,0-.095c1.019-7.913,3.727-14.042,8.05-18.216a22.731,22.731,0,0,1,13.063-6.082,11.516,11.516,0,0,1,3.028-.323,19.073,19.073,0,0,1,9.375,2.278h.03l.029.033c.042.023.086.047.124.07l.046.036.035.023a3.335,3.335,0,1,1-5.111,2.84l-.011-.072c0-.185,0-.36,0-.52v-.037a1.377,1.377,0,0,0-.615-1.3l-.158-.079A7.622,7.622,0,0,0,955.9,157c-7.09-1.149-14.493,8-16.5,20.4a32.972,32.972,0,0,0,1.195,16.533c1.741,4.628,4.585,7.484,8.009,8.039a8.025,8.025,0,0,0,3.857-.352c.171-.057.341-.124.47-.175a2.1,2.1,0,0,0,.251-.154,6.338,6.338,0,0,0,2.015-1.866,2.847,2.847,0,0,1,2.433-1.248,6.223,6.223,0,0,1,1.881.187.781.781,0,0,1,.624.576c.281,1.1-1.478,3.371-1.945,3.8-1.946,1.711-5.321,2.769-9.512,2.983v.006Zm-18.392-26.869h0l0,.107-.022.158c-.049.349-.1.71-.142,1.078-.975,8.53.4,15.04,4.076,19.348,3.93,4.6,9.771,5.786,13.979,5.968a1.326,1.326,0,0,0,.2.022l.13-.008.066,0,.052,0,.055-.013c4.185-.2,7.549-1.246,9.474-2.938.433-.4,2.147-2.607,1.889-3.617a.6.6,0,0,0-.487-.44,6.035,6.035,0,0,0-1.823-.182,2.67,2.67,0,0,0-2.281,1.153,6.507,6.507,0,0,1-2.073,1.929,2.251,2.251,0,0,1-.268.164l-.024.011c-.125.05-.3.118-.474.177a8.214,8.214,0,0,1-3.947.359c-3.494-.567-6.389-3.465-8.155-8.159a33.162,33.162,0,0,1-1.2-16.629c2.028-12.5,9.529-21.722,16.72-20.556a7.858,7.858,0,0,1,2.193.706l.2.1-.042.014a1.684,1.684,0,0,1,.553,1.352v.037c0,.133,0,.277,0,.428l.014.093a.256.256,0,0,1,0,.034,3.132,3.132,0,1,0,4.819-2.646c-.042-.028-.072-.046-.073-.047l-.036-.027-.084-.047-.059-.033a18.886,18.886,0,0,0-9.283-2.254,11.383,11.383,0,0,0-2.99.318,22.566,22.566,0,0,0-12.971,6.034c-4.271,4.125-6.956,10.18-7.98,18" transform="translate(-754.758 -125.316)" fill="#231f20"/>
    <path d="M100.171,78.482c0-.01-.1-.675-.641-.675-.386,0-.5.125-.912.544,0,0-5.767,5.9-6.094,6.3a10.181,10.181,0,0,0-1.252,2.294h-.007s-2.888,7.86-7.3,19.72c-1.362,3.527-6.541,18.4-17.84,22.214a18.571,18.571,0,0,1-10.964.1c-11.523-3.92-16.058-21.847-10.384-38.529C49.9,75.367,61.783,64.819,72.529,65.95l0,0a20.95,20.95,0,0,1,2.533.4h0c1.427.314,3.047.856,3.719,1.749H78.8a11,11,0,0,1,1.275,3.729c.012.008.024.01.036.019a4.522,4.522,0,1,0,6.149-4.653,1.834,1.834,0,0,0-.18-.087s-9.805-5-24.716-2.926a49.761,49.761,0,0,0-6.8,1.885c-9.985,3.583-18.351,12.778-21.513,24.867a37.747,37.747,0,0,0-1.371,9.289c-.268,12,4.432,20.627,11.065,26.278,3.427,3.007,7.512,4.474,12.126,5.451.678.143,1.357.247,2.035.336.365.05.73.095,1.1.13l.034,0a26.875,26.875,0,0,0,5.68-.154l.188-.038c9.763-1.919,16.188-9.178,19.041-13.656a73.7,73.7,0,0,0,4.006-6.886,2.377,2.377,0,0,1,2.593-1.547h4.513c2.031,0,2.294,1.086,2.469,2.154l2.938,17.186a1.856,1.856,0,0,0,1.972,1.327h5.475c.918,0,1.7-.436,1.321-2.948-.376-2.479-8.062-49.375-8.062-49.375M94,106.924H90.578c-2.009,0-1.382-1.9-1.382-1.9.37-1.15,3.533-11.507,3.836-12.542l.33.071,1.9,12.46C95.689,107,94,106.924,94,106.924" transform="translate(-25.715 -51.702)" fill="#231f20"/>
    <path d="M59.633,132.212c-.875,0-1.558-.044-2.01-.086l-.036,0c-.343-.033-.7-.076-1.1-.13-.787-.1-1.436-.21-2.041-.337-5.408-1.145-9.161-2.833-12.168-5.472-5.231-4.457-11.4-12.647-11.1-26.351a38,38,0,0,1,1.374-9.312,38.65,38.65,0,0,1,8.218-15.66,32.573,32.573,0,0,1,13.354-9.27A49.691,49.691,0,0,1,60.952,63.7a50.052,50.052,0,0,1,17.98.686,32.494,32.494,0,0,1,6.788,2.25,1.535,1.535,0,0,1,.155.074l.026.013a4.615,4.615,0,1,1-6.281,4.8l-.033-.021-.008-.039A11.262,11.262,0,0,0,78.348,67.8h0l-.041-.035c-.675-.9-2.357-1.425-3.654-1.712l-.012,0a21.033,21.033,0,0,0-2.52-.393l-.023,0c-10.642-1.11-22.524,9.393-27.641,24.433a42.737,42.737,0,0,0-1.255,24c1.961,7.422,6.074,12.541,11.58,14.414a18.442,18.442,0,0,0,10.907-.1c10.741-3.623,15.881-17.16,17.57-21.608.078-.205.148-.389.21-.55,4.365-11.723,7.274-19.64,7.3-19.719l.027-.053A9.926,9.926,0,0,1,92.045,84.2c.326-.4,5.864-6.062,6.1-6.3l.027-.027c.4-.408.536-.545.953-.545.568,0,.71.623.733.748v.005c.077.469,7.69,46.924,8.062,49.376a3.376,3.376,0,0,1-.3,2.631,1.364,1.364,0,0,1-1.117.425h-5.475a1.964,1.964,0,0,1-2.064-1.4l-2.938-17.189c-.152-.925-.341-2.076-2.376-2.076H89.14a2.291,2.291,0,0,0-2.511,1.5c-.2.353-.362.671-.537,1.007-.558,1.07-1.253,2.4-3.472,5.884-1.7,2.667-8.1,11.535-19.1,13.7l-.186.038a29.434,29.434,0,0,1-3.7.242m8.486-68.825a51.774,51.774,0,0,0-7.145.5,49.423,49.423,0,0,0-6.781,1.879,32.387,32.387,0,0,0-13.278,9.218,38.46,38.46,0,0,0-8.177,15.585,37.8,37.8,0,0,0-1.368,9.268c-.3,13.631,5.831,21.774,11.032,26.2,2.983,2.618,6.71,4.293,12.084,5.431.6.126,1.244.232,2.027.335.394.054.751.1,1.093.13l.022,0a26.426,26.426,0,0,0,5.671-.152l.182-.037c10.931-2.149,17.291-10.964,18.98-13.615a68.138,68.138,0,0,0,3.464-5.87c.176-.337.342-.656.54-1.011a2.462,2.462,0,0,1,2.675-1.6h4.513c2.2,0,2.407,1.291,2.561,2.233l2.938,17.185a1.754,1.754,0,0,0,1.879,1.249h5.475a1.191,1.191,0,0,0,.974-.359,3.233,3.233,0,0,0,.255-2.481c-.372-2.448-7.971-48.819-8.062-49.372v0c-.018-.1-.129-.594-.548-.594-.338,0-.43.094-.818.489l-.026.027c-.057.059-5.768,5.9-6.088,6.29a10.159,10.159,0,0,0-1.237,2.269l-.025.052c-.26.706-3.1,8.442-7.285,19.668q-.093.242-.21.55c-1.7,4.469-6.86,18.068-17.689,21.721a18.633,18.633,0,0,1-11.024.1c-5.568-1.894-9.724-7.059-11.7-14.544a42.928,42.928,0,0,1,1.259-24.1C49.426,74.9,61.4,64.338,72.133,65.469l.02,0a21.335,21.335,0,0,1,2.519.393l.011,0c1.314.289,3.024.828,3.75,1.753l.037.03a10.773,10.773,0,0,1,1.285,3.726l.007,0,.035.025,0,.043a4.428,4.428,0,1,0,6.021-4.556l-.035-.018a1.415,1.415,0,0,0-.145-.069c-.088-.045-6.855-3.42-17.524-3.42m25.5,43.245H90.173a1.537,1.537,0,0,1-1.329-.534,1.84,1.84,0,0,1-.142-1.489c.381-1.185,3.544-11.545,3.834-12.539l.025-.084.479.1,1.906,12.524a1.752,1.752,0,0,1-.23,1.551,1.484,1.484,0,0,1-1.1.468m-.926-14.425c-.411,1.386-3.439,11.3-3.811,12.461A1.68,1.68,0,0,0,89,105.988a1.365,1.365,0,0,0,1.176.455H93.6a1.33,1.33,0,0,0,.977-.4,1.589,1.589,0,0,0,.188-1.395l-1.887-12.4Z" transform="translate(-25.31 -51.316)" fill="#231f20"/>
    <path d="M208.2,102.15a87.608,87.608,0,0,1-9.955-.575c-17.917-2.056-35.75-9.558-48.926-20.584-2.972-2.487-5.392-4.368-7.4-5.751l-.485-.371c-.377-.312-.786-.632-1.238-.967l-.322,2.429c-.1.724-.159,1.2-.225,1.51l.024,0a10.572,10.572,0,0,1-3.986,7.249,10.9,10.9,0,0,1-6.109,2v0l-4.1.018a9.409,9.409,0,0,1-7.988-3.783,8.87,8.87,0,0,1-1.573-5.18,10.111,10.111,0,0,1,.083-1.3l1.685-12.245a34.971,34.971,0,0,1-12.563,2.876l-.755,5.7-.576,4.341a10.465,10.465,0,0,1-4.073,7.314,10.008,10.008,0,0,1-6.324,1.945h0L76.8,86.739c-2.225,0-7.544-.74-8.82-7.6l-.068-.349-1.539-9.5c-.317.512-.657,1.055-1.026,1.635C63.248,74.237,55.3,85.245,41.338,88l-.7.121a34.385,34.385,0,0,1-7.406.178l-.07-.007-1.392-.166L29.233,87.7c-4.53-.963-10.391-2.649-15.552-7.183C7.443,75.168,0,65.434,0,49.45l.012-1.136A45.447,45.447,0,0,1,1.639,37.223C5.306,23.216,15.331,11.71,27.8,7.205a54.156,54.156,0,0,1,8.6-2.314,59.951,59.951,0,0,1,8.073-.553c11.781,0,19.382,3.532,20.785,4.24l.606.305,0,0a12.486,12.486,0,0,1,6.835,10.8,8.786,8.786,0,0,1,2.835-.461c5.731,0,7.584,4.413,8.183,7.343a10.114,10.114,0,0,1,8.149-4.42l20.668,0a19.7,19.7,0,0,1,8.818,2.787,9.9,9.9,0,0,1,6.4-2.468l20.666,0a13.4,13.4,0,0,1,1.392.138,23.614,23.614,0,0,1-.777-2.872l-.051-.273c0-.042-.025-.247-.053-.507h-.009a18.887,18.887,0,0,1-.184-2.588,15.818,15.818,0,0,1,4.236-11l-.019-.02A16.628,16.628,0,0,1,165.168,0a14.937,14.937,0,0,1,7.545,1.993,15.016,15.016,0,0,1,7.439,9.169,13.883,13.883,0,0,1,.458,2.994l2.913-1.458a62.9,62.9,0,0,1,15.259-5.519,43.872,43.872,0,0,1,8.355-.87c15.307,0,20.888,10.136,22.9,16.744a9.4,9.4,0,0,1,3.944-.907l8.214-.007.105,0a9.97,9.97,0,0,1,7.228,3.544,9.565,9.565,0,0,1,1.01,1.487,29.057,29.057,0,0,1,7.444-4.644l.583-.221a24.2,24.2,0,0,1,7.491-1.223,19.639,19.639,0,0,1,8.289,1.761l.228.111C279.587,25.522,288,32.259,288,48.541a54.438,54.438,0,0,1-.365,6.138l-.171,1.376c-2.4,18.749-12.1,26.438-19.821,29.59l-.327.13-.368.108a24.779,24.779,0,0,1-6.263,1.029,9.864,9.864,0,0,1-12.862,5.474,8.828,8.828,0,0,1-1.1-.537,73.963,73.963,0,0,1-38.535,10.3M139.144,71.491l.916.642c.863.6,1.6,1.157,2.239,1.691l.4.309c2.026,1.4,4.479,3.3,7.483,5.818,12.978,10.859,30.55,18.25,48.21,20.276a86.356,86.356,0,0,0,9.8.566,72.507,72.507,0,0,0,38.173-10.314l.356-.22.357.219a8.265,8.265,0,0,0,1.253.649A8.528,8.528,0,0,0,259.429,86.4c.029-.074.054-.151.08-.229l.208-.611h.483a23.615,23.615,0,0,0,6.365-.98l.566-.193c7.383-3.015,16.669-10.405,18.987-28.491l.171-1.38a53,53,0,0,0,.355-5.976c0-6.678-1.649-18.726-12.692-24.377l-.177-.086a18.29,18.29,0,0,0-7.72-1.636A22.794,22.794,0,0,0,259,23.595l-.486.185a27.669,27.669,0,0,0-7.727,4.991l-.7.639-.381-.866a8.47,8.47,0,0,0-1.22-1.991,8.585,8.585,0,0,0-6.221-3.053l-.084,0-8.2.008a8.256,8.256,0,0,0-4.034,1.121l-.759.429-.231-.841c-2.07-7.548-7.535-16.546-21.82-16.546a42.5,42.5,0,0,0-8.094.844,61.767,61.767,0,0,0-14.925,5.407l-4.94,2.491.044-1.159c0-.1.015-.192.026-.286a1.569,1.569,0,0,0,.017-.2,12.593,12.593,0,0,0-.425-3.255,13.686,13.686,0,0,0-6.8-8.343,13.589,13.589,0,0,0-6.867-1.812A15.267,15.267,0,0,0,154.094,6.11l.023.025a14.478,14.478,0,0,0-4.026,10.235q0,.545.038,1.109h0c.139,1.27.183,1.7.2,1.858l.025.1a21.443,21.443,0,0,0,1.135,3.792l.484,1.185-1.252-.263a14.828,14.828,0,0,0-2.353-.322l-.1,0H127.751a8.59,8.59,0,0,0-5.851,2.449l-.388.372-.451-.292a18.219,18.219,0,0,0-8.575-2.849l-.1,0H91.868a8.746,8.746,0,0,0-7.845,5.328l-.983,2.354-.36-2.407c-.049-.325-.083-.566-.1-.687-.666-6.208-4.2-7.51-7.046-7.51a7.258,7.258,0,0,0-3.283.755l-1.051.518.073-1.17c.008-.121.024-.24.04-.358A2.293,2.293,0,0,0,71.346,20,10.987,10.987,0,0,0,64.718,9.846l-.651-.289.017-.034A48.758,48.758,0,0,0,44.476,5.7a58.754,58.754,0,0,0-7.908.543,53.711,53.711,0,0,0-8.313,2.245c-12.048,4.353-21.746,15.5-25.3,29.092A44.092,44.092,0,0,0,1.37,48.334l-.012,1.124c0,15.461,7.185,24.865,13.213,30.03,4.93,4.331,10.575,5.952,14.944,6.88l.122.026,2.489.4,1.182.14a32.552,32.552,0,0,0,7.155-.168l.606-.1C54.511,84.017,62.175,73.393,64.2,70.2c.765-1.2,1.407-2.243,1.965-3.181l.956-1.606,2.193,13.474c1.051,5.649,5.142,6.493,7.487,6.493l16.614.044c.132,0,.239.007.346.007A8.632,8.632,0,0,0,98.9,83.749a9.137,9.137,0,0,0,3.539-6.4l.023,0c.014-.283.068-.685.144-1.262l1.313-9.9.562-.03c5.611-.311,10.1-1.4,13.729-3.334l1.173-.625-2.041,14.832a8.817,8.817,0,0,0-.071,1.119,7.526,7.526,0,0,0,1.318,4.389,8.084,8.084,0,0,0,6.882,3.216l4-.02a9.648,9.648,0,0,0,5.377-1.719,9.239,9.239,0,0,0,3.47-6.347c.006-.043.316-2.382.673-5.073Zm29.277-55.463-.73-1.144.98-.7.853,1.054a5.969,5.969,0,0,1-1.1.788"/>
  </g>
</svg>
